<svg width="76" height="76" viewBox="0 0 76 76" fill="none" xmlns="http://www.w3.org/2000/svg">
<path d="M36.8232 75.4936C28.9238 69.7166 22.615 62.9475 18.0521 55.3587L13.816 59.0099L12.4208 58.7206C9.76853 58.1696 7.63532 57.0327 6.07836 55.3414C4.45062 53.5673 3.57441 51.3041 3.45984 48.6101C3.40564 46.5204 3.77154 44.4418 4.53489 42.5025C5.27172 40.4943 6.29368 38.6082 7.56791 36.9046C8.36803 35.8621 9.24814 34.8863 10.1999 33.9867C9.94715 32.4469 9.78876 31.1516 9.67081 30.1973L9.54273 29.164C9.27257 26.6177 9.16001 24.0565 9.20573 21.4958C9.20573 18.3438 9.31022 15.2675 9.37423 13.7105L9.40794 12.9078L10.146 12.6219C12.3411 11.7967 14.5943 11.1426 16.8861 10.6652C16.7454 10.0236 16.6977 9.36434 16.7445 8.70856C17.004 5.26371 19.7372 2.58362 23.3867 2.2288C23.6732 2.20124 23.9699 2.18748 24.2698 2.18748C25.0266 2.19138 25.781 2.27567 26.5211 2.43894L27.2725 2.60085L28.0105 2.41138C33.6108 0.878155 39.3769 0.0680453 45.1742 0C52.7601 0 56.767 1.62252 56.9321 1.69141L58.0543 2.15303L57.2793 3.05903C58.2193 3.69902 58.91 4.65604 59.2305 5.76321L59.261 5.87346V9.90736C59.2553 10.2398 59.226 10.5714 59.1732 10.8995C61.1185 11.3421 63.0325 11.9175 64.9024 12.6219L65.6369 12.9078L65.6706 13.7105C65.7482 15.6258 65.8392 18.5332 65.8392 21.4991C65.8392 23.101 65.8121 24.5341 65.7584 25.7777L69.0877 24.8786L67.6454 29.9184L72.5455 25.6847L69.1485 37.3971L62.6107 43.0606C61.9346 45.1245 61.147 47.1486 60.2515 49.1234C55.6481 59.2856 48.2307 68.1596 38.2084 75.4971L37.4971 76L36.8232 75.4936Z" fill="white"/>
<path d="M70.9178 28.2477L66.0145 32.471L67.8276 26.1291L64.8283 26.9387C64.926 25.4643 64.9731 23.6489 64.9731 21.5027C64.9731 18.3507 64.8687 15.302 64.8045 13.7518V13.5279L64.5956 13.4452C62.496 12.657 60.3423 12.0283 58.1522 11.5643C58.3096 11.0262 58.3958 10.4689 58.4082 9.90738V5.9906C58.2216 5.38057 57.9002 4.82255 57.469 4.35966C57.0377 3.89677 56.5081 3.54135 55.9212 3.32084L56.6189 2.50443C56.6189 2.50443 46.684 -1.60527 28.2332 3.24163L27.286 3.51031L26.3256 3.30362C25.3834 3.08481 24.4136 3.01626 23.451 3.10039C20.226 3.41387 17.8129 5.74603 17.5871 8.77058C17.5189 9.64199 17.6433 10.5179 17.9511 11.3335C15.392 11.8233 12.8763 12.5261 10.4292 13.4349L10.2203 13.5176V13.7415C10.1562 15.2848 10.0518 18.3438 10.0518 21.489C10.0085 24.0117 10.121 26.5349 10.3888 29.0434L10.5168 30.077C10.6482 31.1448 10.8235 32.5848 11.12 34.314C10.0817 35.2678 9.12766 36.3133 8.26899 37.4386C7.04225 39.0759 6.05776 40.889 5.34718 42.8194C4.62832 44.6472 4.28423 46.6065 4.33617 48.5757C4.43052 51.0525 5.2326 53.1263 6.71541 54.7385C8.14431 56.2955 10.1225 57.3463 12.5995 57.8596L13.5869 58.0628L18.2746 54.0221C22.8141 61.8658 29.197 68.8347 37.3219 74.7772L37.5175 74.9218L37.7095 74.7772C47.6142 67.543 54.9339 58.7723 59.4766 48.7515C60.3906 46.7327 61.1919 44.6624 61.8762 42.5506L68.414 36.9114L70.9178 28.2477Z" fill="#00304F"/>
<path d="M62.0787 38.6475L64.795 29.1503L60.906 30.1836L59.0862 36.5565L54.2162 40.7524L56.9124 31.2549L53.0267 32.2883L51.3652 38.1205L45.6901 43.0605L48.4063 33.5631L44.5173 34.5964L42.4752 41.9031C42.0041 41.6191 41.5892 41.2474 41.2519 40.8074C40.9143 40.3668 40.6626 39.864 40.5104 39.3261C40.3513 38.7561 40.2752 38.1654 40.2846 37.5728C40.294 36.9215 40.4008 36.2758 40.6013 35.6574L36.6551 36.7495C36.2957 38.4261 36.381 39.7487 36.9111 40.718C36.9743 40.8375 37.0452 40.9526 37.1235 41.0625L33.6794 44.049C33.9012 43.3559 34.0016 42.6284 33.976 41.8995C33.9632 41.2832 33.8206 40.6769 33.5579 40.1219C33.3426 39.6198 33.0035 39.183 32.5741 38.8542C32.1289 38.5444 31.6249 38.3341 31.0945 38.2376C30.5009 38.1758 29.9012 38.2259 29.3252 38.3858C28.0184 38.7599 26.804 39.4141 25.7631 40.3045C24.6846 41.23 23.7899 42.3585 23.1277 43.6288C22.602 44.6398 22.3026 45.7575 22.2516 46.9013L16.6607 51.6931C15.3831 51.5115 14.1459 51.1046 13.0042 50.4911C12.058 49.9654 11.2729 49.1818 10.7362 48.2278C10.1801 47.182 9.88063 46.0142 9.86335 44.8242C9.82925 43.6364 9.97941 42.4503 10.3082 41.3105C10.6671 40.134 11.1989 39.0201 11.8854 38.0068C12.5447 37.0059 13.3559 36.1187 14.2882 35.3785C15.1459 34.7021 16.1248 34.2035 17.1696 33.9109C17.8136 33.7201 18.4946 33.7011 19.1478 33.8559C19.7601 34.0021 20.3178 34.3276 20.752 34.7927C21.2283 35.2943 21.5636 35.9181 21.7225 36.598L18.8478 39.0576L19.2792 39.6155L26.1507 33.7042L25.7768 33.1152L24.7926 33.9213C24.1247 33.0744 23.1829 32.4991 22.1371 32.2987C20.8397 32.0752 19.5093 32.1576 18.248 32.5399C16.6387 32.9981 15.1283 33.7624 13.7962 34.7927C12.3493 35.9269 11.0503 37.2455 9.93074 38.7164C8.82392 40.1933 7.93594 41.8288 7.29539 43.5702C6.67209 45.1303 6.37036 46.8048 6.40907 48.4895C6.4877 50.4531 7.09318 52.0503 8.2255 53.2813C9.35785 54.5122 10.9519 55.3424 13.0076 55.7718L22.2888 47.7695C22.381 48.6116 22.6647 49.4197 23.1178 50.1293C23.7247 50.9628 24.5393 51.6146 25.4766 52.0169L37.6088 41.579C38.2117 42.1012 38.9399 42.4498 39.7186 42.5886C40.1297 42.6575 40.5441 42.7125 40.9619 42.7469C41.3798 42.7814 41.7944 42.8194 42.2021 42.8467L40.9317 47.1942L42.4583 46.7807L51.0316 39.371L49.4544 44.8828L50.981 44.4693L58.7322 37.7864L57.3268 42.7573L58.8502 42.3439L66.6012 35.6645L66.9618 34.4241L62.0787 38.6475ZM30.2757 46.364C29.8494 47.123 29.3066 47.8067 28.6682 48.3897C27.7012 48.0489 26.8563 47.4202 26.2417 46.5844C25.6045 45.7428 25.2499 44.7135 25.2308 43.6495C25.1879 42.9083 25.3616 42.1711 25.7294 41.5309C25.8732 41.2545 26.0692 41.0106 26.3066 40.813C26.5438 40.6154 26.8174 40.4682 27.1111 40.3803C27.3859 40.3129 27.6709 40.302 27.9498 40.3481C28.2286 40.3942 28.4957 40.4966 28.7356 40.6491C29.3141 41.0387 29.7797 41.5798 30.0836 42.2164C30.4278 42.8726 30.6258 43.5984 30.6633 44.3419C30.7086 45.0388 30.575 45.736 30.2757 46.364Z" fill="white"/>
<path d="M56.5851 45.5787C54.3556 50.1658 51.5095 54.4119 48.1298 58.1937C47.6357 56.6869 46.8062 55.3178 45.7068 54.194C38.9667 47.6112 29.4564 52.7645 29.0252 60.4843C28.6678 60.1193 28.3151 59.7507 27.9669 59.3785C28.2054 57.5647 28.8339 55.827 29.8068 54.2906C28.7132 55.6023 27.9005 57.1337 27.421 58.7862C25.2643 56.4241 23.3072 53.8797 21.5706 51.1799L21.3954 51.3245L19.8115 52.7024C24.0172 60.078 29.962 66.6644 37.4973 72.3175C46.6235 65.4828 53.3871 57.2946 57.6164 47.9659C58.1522 46.7843 58.6275 45.6304 59.0419 44.521L56.7841 45.1308C56.7266 45.2755 56.6595 45.4237 56.5851 45.5787Z" fill="#C1C1C1"/>
<path d="M62.0783 38.6475L64.7742 29.1916C63.487 29.4946 62.1187 30.0871 60.8245 30.4385L59.079 36.5737L54.2091 40.7697L56.8614 31.4926C55.5606 31.8924 54.2396 32.3195 52.9085 32.7674L51.3749 38.155L45.6899 43.0606L48.1533 34.4483C46.8054 34.9514 45.4572 35.4819 44.1092 36.0159L42.4579 41.9203C41.9868 41.6363 41.5719 41.2647 41.2346 40.8247C40.8971 40.3839 40.6455 39.8812 40.4931 39.3434C40.338 38.7833 40.2619 38.2032 40.2673 37.621C38.9801 38.1859 37.7151 38.7602 36.4728 39.3434C36.5315 39.8139 36.6743 40.2693 36.8941 40.6868C36.9573 40.8064 37.0282 40.9217 37.1062 41.0314L33.6621 44.0182C33.8839 43.3251 33.9843 42.5972 33.9588 41.8686C33.9444 41.4691 33.8799 41.0732 33.7667 40.6904C32.5488 41.3105 31.3729 41.9386 30.2383 42.5747C30.4804 43.127 30.6197 43.7203 30.6495 44.3247C30.6936 45.0221 30.559 45.7191 30.2584 46.3468C29.8323 47.1058 29.2893 47.7896 28.6509 48.3725C27.6841 48.0315 26.839 47.403 26.2244 46.5672C25.9567 46.2164 25.7379 45.829 25.5741 45.4168C24.381 46.2126 23.269 46.9462 22.2715 47.7523C22.3667 48.5936 22.6504 49.401 23.1005 50.1121C23.7074 50.9456 24.5223 51.5974 25.4596 51.9997L37.5917 41.5619C38.1945 42.084 38.9228 42.4326 39.7013 42.5714C40.1124 42.6403 40.5268 42.6953 40.9449 42.7297C41.3627 42.7642 41.7771 42.8022 42.1851 42.8295L40.9313 47.1942L42.4579 46.7808L51.028 39.371L49.4542 44.8828L50.9809 44.4694L58.7318 37.7864L57.3266 42.7573L58.8498 42.3439L66.6007 35.6645L66.9613 34.4242L62.0783 38.6475Z" fill="#C1C1C1"/>
<path d="M41.7031 48.6065C43.7668 49.2926 45.7034 50.3277 47.432 51.6691C45.1708 49.0167 41.7031 48.6065 41.7031 48.6065Z" fill="#C1C1C1"/>
<path d="M37.4966 67.815C40.3717 65.7111 43.0847 63.3847 45.6116 60.8565C45.6421 60.5119 45.6555 60.2019 45.6689 59.9779C45.6689 59.8713 45.7026 59.8677 45.7296 59.9779C45.7841 60.1889 45.827 60.4028 45.8577 60.6188L46.1373 60.3397C46.0126 57.8388 44.8939 55.7341 45.2071 56.206C45.9321 57.3405 46.3645 58.6441 46.4642 59.9951L46.4879 59.9678C46.3868 56.8363 44.7387 54.1735 41.6418 52.9953C41.5439 52.9608 41.4733 52.9264 41.4867 52.916C41.5003 52.9059 41.426 52.8747 41.3249 52.8402C35.3734 50.8802 29.8197 55.8891 30.2039 61.673C32.4963 63.8863 34.9328 65.9383 37.4966 67.815Z" fill="white"/>
<path d="M56.7971 45.1273C56.7262 45.2791 56.6588 45.427 56.5847 45.582C54.6717 49.529 52.2952 53.2226 49.5076 56.5815C47.1151 51.4969 42.808 50.46 42.808 50.46C44.2489 51.0614 45.5493 51.9665 46.6246 53.1162C47.7002 54.2658 48.5262 55.6346 49.0494 57.1328C48.9517 57.2463 48.8605 57.3636 48.7629 57.4771C48.2306 55.8476 46.6871 54.3768 46.6871 54.3768C46.6871 54.3768 48.008 56.1957 48.3012 57.9939C48.0719 58.2523 47.8362 58.5071 47.6035 58.7655C47.1691 57.2222 46.3574 55.8172 45.2447 54.6833C40.8298 50.3774 34.7301 51.3763 31.6298 55.4068C30.3619 57.0411 29.6813 59.0705 29.7021 61.1562C29.8773 61.332 30.0389 61.5007 30.231 61.6799C30.1542 60.5411 30.3011 59.3981 30.6637 58.3181C31.026 57.2384 31.5963 56.2438 32.3408 55.3931C32.3086 55.4663 32.2969 55.5474 32.3071 55.6272C32.3584 55.9616 32.4283 56.293 32.516 56.6193C32.5423 56.6646 32.5581 56.7155 32.5624 56.7682C32.5663 56.8207 32.5586 56.8736 32.5396 56.9225L32.4352 57.1429C32.3547 57.2896 32.2816 57.4401 32.2161 57.5943L32.1014 57.8284L32.4015 57.4598C32.5125 57.3324 32.6541 57.1601 32.8092 56.995C32.9641 56.8295 33.0855 56.8399 35.0974 56.5402C35.1681 56.5326 35.236 56.507 35.2947 56.4663C35.3534 56.4255 35.4015 56.3702 35.4345 56.3059C36.004 55.1484 36.2432 54.6696 36.3443 54.4629C36.4035 54.3514 36.4922 54.2595 36.6005 54.1977L37.6114 53.7637L37.3487 53.7878H37.3183C37.2015 53.7878 37.0769 53.805 36.9443 53.8394C36.8216 53.8569 36.6999 53.8823 36.5802 53.9152C36.5249 53.9205 36.4692 53.9139 36.4164 53.8962C36.3636 53.8785 36.315 53.8496 36.2736 53.8118C36.1658 53.7292 35.9366 53.6018 35.3772 53.2745C35.3009 53.2327 35.2132 53.2183 35.1277 53.2332C37.0717 52.2787 39.3019 52.133 41.3487 52.8266C41.4028 52.8423 41.4548 52.8641 41.5039 52.892C41.4385 52.8991 41.376 52.9229 41.322 52.9609C40.9879 53.1825 40.6702 53.429 40.3715 53.6981C40.3421 53.7429 40.3024 53.7802 40.2561 53.8065C40.21 53.8329 40.1582 53.8475 40.1054 53.8498C39.8749 53.8232 39.6432 53.8093 39.4112 53.8083H38.8652L40.2132 54.2113C40.3289 54.2577 40.4285 54.338 40.4997 54.4421L41.487 55.9854C41.5242 56.0434 41.5738 56.0916 41.6325 56.1263C41.691 56.161 41.7564 56.181 41.8241 56.1853L43.6742 56.2438C43.8112 56.2519 43.9416 56.3064 44.0449 56.3989L44.173 56.5091L44.9279 57.2326C44.8786 57.1196 44.8201 57.0114 44.7525 56.9088C44.6372 56.7135 44.5101 56.526 44.3718 56.3472V56.3267L44.3381 56.2851C44.3133 56.2362 44.3002 56.182 44.3002 56.1268C44.3002 56.0716 44.3133 56.0173 44.3381 55.9682C44.3988 55.592 44.437 55.2125 44.4526 54.8315C44.4526 54.8315 44.4526 54.8074 44.4526 54.7935C44.5807 54.9212 44.6952 55.0418 44.7897 55.138C45.8551 56.5075 46.4603 58.1915 46.5151 59.9402L46.4747 59.9883C46.3763 58.6429 45.9448 57.3448 45.2211 56.2162C45.2097 56.1975 45.1961 56.18 45.1805 56.1645L45.0154 55.8892L45.3525 56.678C45.7968 57.8446 46.065 59.0736 46.1478 60.3225C46.0533 60.4226 45.9624 60.5224 45.8647 60.6189C45.8647 60.5776 45.8647 60.536 45.8412 60.4915L45.6861 59.6268L45.6491 60.536C45.6491 60.6361 45.6491 60.7463 45.6253 60.8601C43.0937 63.3873 40.3763 65.7124 37.4969 67.8151V69.8063C46.6229 62.9751 53.3867 54.7867 57.616 45.4582C57.7104 45.2446 57.8048 45.0343 57.8958 44.8243L56.7971 45.1273Z" fill="#858486"/>
<path d="M38.5388 64.4392C38.603 64.7389 38.6231 64.8835 38.9366 66.3959C38.9601 66.4993 38.9366 66.3199 38.9366 66.2133C38.9366 64.6768 38.9366 64.6976 38.9366 64.4115C38.9381 64.352 38.9522 64.2937 38.9777 64.24C39.0035 64.1866 39.0399 64.1395 39.0848 64.1015L41.4236 62.2929C41.524 62.2291 41.6447 62.2068 41.7606 62.2311C42.2774 62.3413 42.7882 62.4794 43.2908 62.6443C43.3919 62.6755 43.5602 62.7408 43.4692 62.6891L41.8955 61.8417C41.7936 61.7766 41.7145 61.6801 41.6697 61.5661C41.5787 61.2872 41.3326 60.55 40.6588 58.5588C40.6754 58.4922 40.6992 58.4276 40.7294 58.366L40.8776 58.0215C40.9619 57.8147 41.0461 57.608 41.1272 57.4152L41.5889 56.3127L40.9148 57.3463L40.5609 57.8629L40.3654 58.1489C40.3289 58.1953 40.2836 58.2333 40.2318 58.2604C40.1802 58.2877 40.1235 58.3037 40.0655 58.3072L37.0831 58.3315C36.9643 58.327 36.8516 58.2778 36.7663 58.1937L36.5876 57.9974L35.4756 56.7021L35.5767 56.8777V56.9088L36.1495 57.8216L36.4023 58.2454L36.49 58.3934C36.5435 58.4995 36.5579 58.6219 36.5304 58.7379C36.3653 59.3097 35.8563 61.0425 35.6947 61.6662C35.6756 61.7219 35.6449 61.7731 35.6047 61.8159C35.5646 61.8587 35.516 61.8921 35.462 61.9142C34.7847 62.1057 34.1205 62.3426 33.4736 62.6238L35.5767 62.3517C35.695 62.3436 35.8129 62.3737 35.9135 62.4376L38.3366 64.1602C38.4323 64.2279 38.5034 64.3259 38.5388 64.4392Z" fill="#858486"/>
<path d="M31.7676 60.6566C31.7676 60.5948 31.7676 60.536 31.7676 60.4775C31.7676 59.6369 31.7676 59.3028 31.7676 59.3028C31.7676 59.3028 31.5857 60.0744 31.5148 60.5155C31.5071 60.5806 31.4831 60.6427 31.4454 60.6956C31.4077 60.7486 31.3574 60.7909 31.2992 60.8185C31.1778 60.8978 30.9621 61.0769 30.4162 61.5075C30.3559 61.5613 30.3126 61.6319 30.2915 61.7107C31.1475 62.5376 32.035 63.3495 32.954 64.1463C33.0246 63.8466 33.1257 63.4331 33.2672 62.8545C33.2841 62.7861 33.2843 62.7147 33.268 62.646C33.2516 62.5776 33.2189 62.5143 33.1728 62.4619C31.8585 60.9494 31.7676 60.8978 31.7676 60.6566Z" fill="#858486"/>
<path d="M20.7315 51.8966L19.8115 52.706C24.0172 60.078 29.962 66.6644 37.4973 72.3176V69.882C30.3833 64.6459 24.762 58.614 20.7315 51.8966Z" fill="#858486"/>
<path d="M22.1671 19.1913C21.9076 18.9535 21.3078 19.1913 20.8191 19.7423C20.3304 20.2936 20.145 20.917 20.4146 21.1582C20.6843 21.3994 21.2706 21.1582 21.7628 20.6105C22.2548 20.0628 22.4233 19.4322 22.1671 19.1913Z" fill="#FCBC00"/>
<path d="M19.2689 13.397C16.8984 13.8388 14.5625 14.4559 12.2794 15.2434C12.2188 16.866 12.1447 19.3772 12.1447 21.9607C12.1089 24.3634 12.2214 26.7657 12.4817 29.1536L12.6063 30.1561C12.694 30.8728 12.8018 31.765 12.9433 32.8019C13.2298 32.5985 13.5196 32.4021 13.8094 32.2195C13.9072 32.1577 14.0083 32.1024 14.106 32.0439C13.8735 30.7005 13.7252 29.5671 13.614 28.7025L13.4792 27.7069C13.2512 25.7385 13.1454 23.7571 13.1624 21.7748C13.1624 19.7803 13.2096 16.9762 13.2467 15.7774C15.359 15.1676 17.5036 14.6811 19.67 14.3202C17.7002 18.5746 16.5231 23.1669 16.1988 27.8619C16.8873 23.3442 18.3233 18.9792 20.445 14.9541C20.445 14.9541 20.6472 14.5889 20.6911 14.5097C20.1684 14.2085 19.6899 13.834 19.2689 13.397ZM13.1624 22.2123C13.164 22.2022 13.164 22.1915 13.1624 22.1814C13.164 22.1915 13.164 22.2022 13.1624 22.2123Z" fill="#FCBC00"/>
<path d="M23.0068 21.3581C22.5114 21.1133 21.7128 21.7576 21.2174 22.798C20.722 23.8382 20.7255 24.8649 21.2174 25.1233C21.7094 25.3815 22.5215 24.734 23.0068 23.6935C23.4923 22.6533 23.5091 21.6129 23.0068 21.3581Z" fill="#FCBC00"/>
<path d="M38.5085 12.6942L37.7975 12.2877C34.6899 13.872 31.7065 15.6986 28.8735 17.7512C31.9097 15.737 35.1377 14.0427 38.5085 12.6942Z" fill="#FCBC00"/>
<path d="M23.2184 13.149C23.4745 13.2385 23.7406 13.3178 24.0036 13.3832C22.3421 11.5678 21.9545 10.0693 21.9007 9.19772V9.0496L20.6673 8.83257C21.0898 8.64672 21.5245 8.49133 21.9681 8.36752C22.7079 8.15396 23.4685 8.02342 24.236 7.97825H24.2764H24.6135H24.8596C25.3416 7.98494 25.8214 8.04265 26.2918 8.15049C26.5927 8.21322 26.8846 8.31387 27.1612 8.45021C28.6908 9.10974 29.9159 10.3422 30.5853 11.895C30.129 11.6088 29.6073 11.4497 29.0722 11.4334C29.3788 12.1878 29.8809 13.6932 29.6618 15.0229C32.6442 13.1145 36.4019 10.6997 42.7578 9.08405C40.3149 9.5307 37.85 9.84233 35.3741 10.0176L39.4822 8.47775C36.786 8.20217 29.8202 9.42853 29.8202 9.42853C40.6381 5.66331 48.1397 6.14561 48.1397 6.14561C46.3739 6.54175 42.4108 8.09539 42.4108 8.09539C49.882 7.4064 53.6364 5.06048 55.6718 6.06981C54.8562 4.73667 52.0827 4.39563 52.0827 4.39563L52.7568 3.59297C52.7568 3.59297 46.02 2.4114 36.4861 3.78933C36.4861 3.93401 36.2435 4.08558 35.9436 4.13381C35.6438 4.18205 35.3471 4.13381 35.3134 3.97191C34.334 4.13037 33.3295 4.31984 32.3005 4.54031C32.2668 4.8848 31.7478 5.29471 31.0368 5.49107C30.2584 5.70466 29.5473 5.5841 29.4294 5.22583C28.8599 5.3774 28.2802 5.53586 27.7005 5.7081C28.0482 6.00483 28.3503 6.35319 28.5969 6.74155C28.7818 6.65283 28.9763 6.58692 29.1766 6.54519C29.9079 6.34194 30.5719 6.45909 30.6628 6.80357C30.7538 7.14805 30.2348 7.57864 29.5069 7.775C29.3855 7.80601 29.2675 7.82668 29.153 7.84391C29.1025 7.76122 29.0452 7.67856 28.988 7.59931C28.9305 7.5201 28.9238 7.51665 28.8936 7.47531C28.8195 7.37886 28.7419 7.28239 28.6643 7.19284L28.5362 7.05847C28.4891 7.00682 28.442 6.95514 28.3915 6.9069C27.6799 6.22964 26.811 5.7494 25.8673 5.51175C25.3342 5.37527 24.7852 5.31498 24.236 5.33261C18.962 5.33606 18.0218 11.7814 23.2184 13.149ZM33.3823 5.08805C33.8475 4.96057 34.272 5.03292 34.3293 5.2534C34.3868 5.47385 34.0564 5.75634 33.5912 5.88035C33.1263 6.00435 32.7017 5.93547 32.6443 5.71499C32.587 5.49452 32.9174 5.2155 33.3823 5.08805Z" fill="#FCBC00"/>
<path d="M24.9813 16.9899C24.8802 16.766 24.4286 16.7556 23.9704 16.9899C23.5119 17.2241 23.2425 17.5445 23.3434 17.7684C23.4445 17.9923 23.8963 17.9992 24.3545 17.7856C24.8128 17.572 25.0824 17.2241 24.9813 16.9899Z" fill="#FCBC00"/>
<path d="M43.7925 23.635C43.4619 23.8582 43.1955 24.1672 43.0208 24.5308C43.0138 24.5439 43.0081 24.5576 43.0039 24.5721C42.9033 24.7877 42.847 25.0222 42.8388 25.2609C41.7571 22.9254 42.7781 19.2118 43.6039 16.9486L44.4361 15.0092C43.2029 15.5081 42.0096 16.1047 40.8673 16.7936C40.8235 16.8315 40.7866 16.8763 40.7459 16.9142C42.0941 16.4422 42.9635 16.2252 42.9635 16.2252L39.3779 18.5057C39.2463 18.6882 39.1216 18.8708 38.9935 19.0603C40.2314 18.5473 41.5013 18.1192 42.795 17.7788L37.8849 20.9101C36.8468 22.8529 36.1999 24.7476 36.2772 25.6021H36.3246L36.4019 25.5778C36.8401 25.4575 38.3803 25.1198 39.5395 25.9223C39.6267 25.9882 39.709 26.0609 39.7856 26.1394C40.2743 26.6491 42.2423 28.4199 44.4597 26.6423C50.6168 22.4707 54.1284 23.0597 54.1284 23.0597C54.4793 22.361 54.5576 21.5521 54.3474 20.7964C53.3801 18.1302 45.9427 21.9298 43.7925 23.635Z" fill="#FCBC00"/>
<path d="M24.2464 19.167C23.9331 19.5115 23.8117 19.9386 23.9837 20.0972C24.1554 20.2555 24.5462 20.0972 24.8632 19.7355C25.1799 19.3737 25.2979 18.9638 25.1259 18.8054C24.9542 18.6469 24.5631 18.8088 24.2464 19.167Z" fill="#FCBC00"/>
<path d="M62.8742 19.4529C62.8742 16.8969 62.8001 16.8728 62.7394 15.2433C60.8417 14.5825 58.9044 14.0475 56.9396 13.6415C56.9082 13.7133 56.8811 13.7869 56.8586 13.862L56.6395 14.5199C56.359 15.362 56.0281 16.1857 55.6489 16.9864C55.9894 17.6893 56.1285 18.4764 56.0499 19.2566C56.5887 20.1068 56.8973 21.0879 56.9441 22.0998C56.9909 23.1116 56.7741 24.1181 56.3161 25.0164C56.3161 25.0164 58.2876 22.1193 56.6732 19.1601C56.7699 18.454 56.7379 17.7358 56.579 17.0415C56.579 17.0415 57.4787 15.3949 57.6742 14.8472L57.7114 14.768C59.3322 15.1124 60.6836 15.4569 61.7553 15.7773C61.8026 17.2517 61.843 19.0706 61.843 20.9066C61.8829 23.1665 61.7771 25.4268 61.5263 27.6723L61.5059 27.8307L62.4157 27.5862L62.699 27.5104C62.8068 26.0566 62.8606 24.1999 62.8606 21.9607C62.8606 21.5336 62.8606 21.1064 62.8606 20.6829C62.8606 20.259 62.8742 19.8768 62.8742 19.4529Z" fill="#FCBC00"/>
<path d="M39.9841 13.545C36.8768 15.016 32.7992 17.417 27.4946 21.289C27.4946 21.289 34.0562 16.6178 41.5309 14.2443C40.9921 14.0692 40.4734 13.8347 39.9841 13.545Z" fill="#FCBC00"/>
<path d="M26.7433 16.3905C26.4062 16.5455 26.2142 16.8004 26.2883 16.9623C26.3624 17.1242 26.686 17.1311 27.0095 16.9623C27.3331 16.7935 27.5386 16.5524 27.4645 16.3905C27.3904 16.2286 27.0667 16.2355 26.7433 16.3905Z" fill="#FCBC00"/>
<path d="M28.8063 36.5153C28.721 36.5251 28.6352 36.5251 28.55 36.5153C28.4841 36.5109 28.4204 36.4897 28.3646 36.4532C28.3175 36.4195 28.2823 36.3711 28.2635 36.3156C28.2462 36.2455 28.2462 36.172 28.2635 36.1018C28.2794 35.9815 28.316 35.8649 28.3716 35.7575C28.4303 35.6514 28.5027 35.5541 28.5872 35.468C28.6789 35.378 28.7807 35.2995 28.8905 35.2339C29.0077 35.1622 29.1319 35.1034 29.261 35.0581L29.2982 34.9307L29.6791 34.8308L29.6385 34.9583C29.7247 34.9469 29.812 34.9469 29.898 34.9583C29.9624 34.9651 30.0246 34.9864 30.0801 35.0203C30.1292 35.0528 30.1659 35.1014 30.1844 35.1581C30.2006 35.2296 30.2006 35.3036 30.1844 35.375C30.1688 35.4961 30.1312 35.6129 30.0734 35.7195C30.0167 35.8269 29.9438 35.9245 29.8576 36.0088C29.7678 36.0998 29.6672 36.1786 29.5577 36.2432C29.44 36.3141 29.3158 36.3729 29.1869 36.419L29.15 36.5497L28.7691 36.6531L28.8063 36.5153ZM28.6444 35.9572C28.6355 35.9947 28.6355 36.0337 28.6444 36.0709C28.6546 36.0993 28.6734 36.1236 28.6984 36.1398C28.7255 36.1583 28.7569 36.1689 28.7894 36.1707C28.8283 36.1778 28.8682 36.1778 28.9074 36.1707L29.1364 35.4163C29.0744 35.4406 29.0147 35.4708 28.9579 35.506C28.8484 35.5673 28.7582 35.6592 28.6984 35.7712C28.6682 35.8325 28.6499 35.8991 28.6444 35.9675V35.9572ZM29.7869 35.53C29.7976 35.4931 29.7976 35.4535 29.7869 35.4163C29.779 35.3879 29.7609 35.3633 29.7364 35.3476C29.7101 35.3297 29.6801 35.319 29.6486 35.3165C29.6085 35.3096 29.5676 35.3096 29.5274 35.3165L29.2982 36.0674C29.3602 36.0443 29.4199 36.0157 29.4769 35.9815C29.5304 35.9483 29.5802 35.9088 29.6251 35.8642C29.6685 35.8204 29.7059 35.7705 29.7364 35.7162C29.7629 35.661 29.78 35.6015 29.7869 35.5404V35.53Z" fill="white"/>
<path d="M30.5753 35.8917H30.609H30.6326C30.6573 35.8856 30.6811 35.8763 30.7034 35.8641C30.7257 35.8482 30.7451 35.8284 30.7607 35.8056L30.9057 35.5956L30.7101 34.586L31.1314 34.4726L31.2392 35.1236L31.8021 34.2899L32.2234 34.1762L31.0943 35.8264C31.0606 35.8768 31.0209 35.9231 30.9763 35.9642C30.9366 36.0055 30.8925 36.0425 30.8449 36.0744C30.8001 36.1045 30.7528 36.1311 30.7034 36.1534C30.6591 36.1752 30.6127 36.1927 30.5651 36.2051H30.4809H30.4204L30.5753 35.8917Z" fill="white"/>
<path d="M33.0452 34.2555L32.5869 34.3796L32.688 34.0351L33.9854 33.6906L33.8843 34.0351L33.4261 34.159L33.0115 35.5163L32.6308 35.6197L33.0452 34.2555Z" fill="white"/>
<path d="M35.0672 33.9626C35.1348 33.9419 35.2055 33.9338 35.2761 33.9386C35.3269 33.9403 35.376 33.9571 35.4176 33.9867C35.4535 34.0163 35.4805 34.0556 35.4952 34.1004C35.5056 34.1552 35.5056 34.2112 35.4952 34.2659C35.486 34.3264 35.4689 34.3854 35.4446 34.4414C35.4201 34.4997 35.3896 34.5552 35.3537 34.6069C35.3145 34.6596 35.2719 34.709 35.2255 34.7551C35.1762 34.8004 35.1244 34.843 35.0704 34.8825C35.0161 34.918 34.9599 34.9501 34.9021 34.979C34.8449 35.0079 34.7849 35.0309 34.7234 35.0479L34.0493 35.227L34.5651 33.5251L35.6838 33.2254L35.5794 33.57L34.8649 33.7595L34.7807 34.0351L35.0672 33.9626ZM34.6796 34.3794L34.5549 34.7928L34.8245 34.7206C34.8582 34.7097 34.891 34.6958 34.9222 34.6793C34.9522 34.6601 34.9804 34.6383 35.0064 34.6137C35.0317 34.5874 35.0543 34.5585 35.0739 34.5276C35.09 34.4964 35.1014 34.4627 35.1076 34.4278C35.1147 34.4065 35.1147 34.3834 35.1076 34.3621C35.1014 34.3459 35.091 34.3315 35.0773 34.3208C35.0595 34.3165 35.0411 34.3165 35.0233 34.3208H34.9559L34.6796 34.3794Z" fill="white"/>
<path d="M35.997 34.0384C36.0109 33.9483 36.0357 33.8604 36.0711 33.7768C36.1115 33.685 36.1601 33.5974 36.2161 33.5148C36.2768 33.4297 36.3433 33.3491 36.4151 33.2736C36.4895 33.1999 36.5695 33.1318 36.6543 33.0705C36.7378 33.0089 36.8258 32.9537 36.9172 32.905C37.0045 32.8607 37.0959 32.825 37.1901 32.7984C37.2877 32.7708 37.3896 32.7627 37.49 32.7743C37.57 32.7819 37.6461 32.8128 37.7091 32.8637C37.769 32.9121 37.8127 32.9783 37.8337 33.0532C37.8563 33.1427 37.8563 33.2361 37.8337 33.3253C37.8216 33.416 37.7965 33.5042 37.7596 33.5873C37.7192 33.679 37.6706 33.7664 37.6146 33.849C37.5542 33.9353 37.4877 34.0169 37.4159 34.0937C37.34 34.1684 37.2602 34.2383 37.1767 34.3037C37.0939 34.3665 37.006 34.422 36.9138 34.4691C36.827 34.5152 36.7353 34.5509 36.6409 34.576C36.5438 34.6062 36.4416 34.6155 36.3408 34.6034C36.2617 34.593 36.1864 34.5621 36.1217 34.514C36.0632 34.4643 36.0198 34.3984 35.997 34.3245C35.973 34.2307 35.973 34.1322 35.997 34.0384ZM36.3881 33.9042C36.376 33.9586 36.376 34.0151 36.3881 34.0696C36.3988 34.1144 36.4223 34.1552 36.4555 34.1866C36.4912 34.2165 36.5343 34.2355 36.5802 34.2419C36.6357 34.2533 36.6929 34.2533 36.7487 34.2419C36.8052 34.2274 36.8595 34.2054 36.9103 34.1763C36.9656 34.1489 37.0174 34.1152 37.0654 34.0764C37.1155 34.0384 37.1616 33.9959 37.2035 33.949C37.2476 33.9024 37.287 33.8517 37.3215 33.7973C37.3564 33.7481 37.3859 33.6949 37.4092 33.6389C37.4315 33.584 37.4464 33.526 37.4531 33.4667C37.4652 33.4122 37.4652 33.3557 37.4531 33.3012C37.4409 33.2569 37.4176 33.2166 37.3856 33.1842C37.3497 33.1543 37.3066 33.1353 37.261 33.129C37.2042 33.1158 37.1455 33.1158 37.089 33.129C37.0052 33.1528 36.9254 33.19 36.853 33.2394C36.7737 33.2904 36.7014 33.3517 36.6374 33.4218C36.5727 33.49 36.5172 33.5665 36.4724 33.6493C36.4288 33.7281 36.4003 33.8145 36.3881 33.9042Z" fill="white"/>
<path d="M39.7615 32.4469L39.0874 32.626L38.8988 33.2566V33.2908L38.8178 33.5563C38.7925 33.6373 38.7551 33.7141 38.7068 33.7835C38.6631 33.8491 38.6109 33.9081 38.5516 33.9593C38.4451 34.0518 38.3196 34.1189 38.1843 34.1556C38.1563 34.1584 38.1281 34.1584 38.1001 34.1556H38.0361L38.2012 33.8111H38.2753C38.3142 33.8007 38.3491 33.7792 38.3764 33.749C38.4049 33.7133 38.4267 33.6725 38.4403 33.6285L38.5246 33.346L38.8213 32.378L40.2503 31.9922L39.7345 33.6938L39.3536 33.7939L39.7615 32.4469Z" fill="white"/>
<path d="M41.5173 32.1368C41.5828 32.1171 41.6514 32.11 41.7196 32.1163C41.7706 32.1216 41.8192 32.1406 41.8611 32.1713C41.8983 32.2032 41.9263 32.245 41.9419 32.2919C41.954 32.3522 41.954 32.4142 41.9419 32.4745C41.927 32.5708 41.8963 32.664 41.8509 32.7501C41.8016 32.8408 41.7404 32.9242 41.669 32.9982C41.5971 33.0747 41.5156 33.1408 41.4264 33.1945C41.3399 33.2505 41.2455 33.2923 41.1466 33.3184L40.4355 33.5114L40.9545 31.8095L41.3386 31.7062L41.2038 32.2265L41.5173 32.1368ZM41.3927 32.4814L41.0826 32.564L40.931 33.0704L41.241 32.9878C41.2784 32.9769 41.3139 32.9594 41.3453 32.9361C41.3808 32.9123 41.4137 32.8847 41.4432 32.8535C41.472 32.8208 41.4968 32.7851 41.5173 32.7466C41.5337 32.7114 41.5461 32.6744 41.5543 32.6364C41.5595 32.6113 41.5595 32.5855 41.5543 32.5607C41.5483 32.5411 41.5379 32.5234 41.524 32.509C41.5092 32.4943 41.4903 32.4847 41.47 32.4814C41.4442 32.4773 41.418 32.4783 41.3927 32.4849V32.4814Z" fill="white"/>
<path d="M42.7402 31.348L43.1211 31.2446L42.9087 31.9337L43.6267 31.7407L43.8388 31.0518L44.2232 30.9485L43.704 32.6468L43.3198 32.7535L43.5255 32.0647L42.8076 32.2575L42.6053 32.9293L42.2212 33.0327L42.7402 31.348Z" fill="white"/>
<path d="M45.5042 31.0691C45.5684 31.0494 45.6361 31.0425 45.703 31.0483C45.7555 31.0516 45.8058 31.0709 45.848 31.1036C45.8866 31.1332 45.9139 31.176 45.9253 31.2242C45.9394 31.2829 45.9394 31.3445 45.9253 31.4033C45.9111 31.5003 45.8792 31.5938 45.8311 31.6789C45.732 31.8628 45.5865 32.0163 45.4098 32.1232C45.3238 32.18 45.2294 32.222 45.13 32.2471L44.4189 32.4402L44.9379 30.7383L45.3188 30.6349L45.1605 31.1585L45.5042 31.0691ZM45.3793 31.4136L45.0693 31.4962L44.9109 31.9958L45.2244 31.913C45.2613 31.9008 45.2965 31.8833 45.3287 31.8613C45.3994 31.8134 45.4574 31.7483 45.4973 31.6718C45.5176 31.6386 45.5302 31.6009 45.5344 31.5616C45.5394 31.5368 45.5394 31.5109 45.5344 31.4858C45.5285 31.4666 45.5181 31.4489 45.5042 31.4342C45.4888 31.4205 45.4703 31.4109 45.4502 31.4066C45.4264 31.4045 45.4023 31.4068 45.3793 31.4136ZM45.8817 32.0371L46.2658 31.9337L46.7813 30.2354L46.3972 30.3388L45.8817 32.0371Z" fill="white"/>
<path d="M47.54 30.039L47.9207 29.9392L47.6106 30.9725L48.7058 29.7428L49.0429 29.6531L48.5207 31.3479L48.1398 31.4513L48.4498 30.418L47.3546 31.6476L47.0176 31.7373L47.54 30.039ZM48.888 29.1571C48.8669 29.2118 48.8399 29.2638 48.8069 29.3122C48.7737 29.3631 48.7353 29.4104 48.6924 29.4533C48.6473 29.4958 48.5975 29.5328 48.5442 29.5635C48.4865 29.5949 48.4253 29.6189 48.3623 29.6359C48.3088 29.6468 48.2538 29.6468 48.2005 29.6359C48.1631 29.6352 48.1271 29.6205 48.0994 29.5946C48.0736 29.569 48.058 29.5346 48.0555 29.4981C48.0463 29.4528 48.0463 29.4059 48.0555 29.3603L48.3118 29.2742C48.311 29.2891 48.311 29.304 48.3118 29.319C48.3093 29.3291 48.3093 29.3398 48.3118 29.3499C48.3227 29.3524 48.3343 29.3524 48.3455 29.3499H48.4059C48.4285 29.3453 48.45 29.337 48.4701 29.3258L48.5207 29.2914L48.5611 29.2432L48.6015 29.188L48.888 29.1571Z" fill="white"/>
<path d="M50.8257 29.9356L51.7189 28.9023L52.167 28.7817L51.3583 29.6945L51.675 30.4729L51.22 30.5971L51.0212 30.0527L50.6641 30.4557L50.5697 30.7726L50.1855 30.876L50.701 29.1777L51.0852 29.0743L50.8257 29.9356Z" fill="white"/>
<path d="M53.7806 28.6713L53.1067 28.8506L52.9147 29.4774V29.5154L52.8336 29.7771C52.8108 29.8599 52.7744 29.938 52.7258 30.0081C52.6792 30.0722 52.6262 30.131 52.5674 30.1837C52.5112 30.2313 52.45 30.2729 52.3855 30.3078C52.3268 30.3367 52.2658 30.3608 52.2034 30.38H52.1191H52.0552L52.2202 30.0355H52.2539H52.2775H52.2943C52.3315 30.0251 52.3652 30.0048 52.3922 29.977C52.422 29.9423 52.4438 29.901 52.4562 29.8564L52.5439 29.5739L52.8371 28.6059L54.2659 28.2201L53.7504 29.9184L53.3694 30.0218L53.7806 28.6713Z" fill="white"/>
<path d="M54.6839 29.3947H54.7176H54.7414L54.812 29.3638C54.8343 29.3491 54.8536 29.3304 54.8692 29.3086L55.0142 29.0986L54.8187 28.0858L55.24 27.9756L55.3478 28.6231L55.9106 27.7929L56.3319 27.6792L55.1793 29.3535C55.1436 29.4026 55.1042 29.4485 55.0613 29.4913C55.0177 29.5326 54.9738 29.567 54.93 29.6015C54.8841 29.6306 54.837 29.6569 54.7884 29.6808L54.6502 29.7324H54.5659H54.502L54.6839 29.3947Z" fill="white"/>
<path d="M57.3801 27.948C57.448 27.9292 57.5184 27.9209 57.5891 27.9239C57.6399 27.9277 57.6887 27.9457 57.7306 27.9756C57.7682 28.0032 57.7958 28.0432 57.8079 28.0891C57.8205 28.1423 57.8205 28.198 57.8079 28.2512C57.801 28.3123 57.7839 28.3715 57.7573 28.4268C57.7338 28.4855 57.7033 28.541 57.6664 28.5922C57.6285 28.6454 57.5856 28.695 57.5385 28.7401C57.4907 28.7875 57.4386 28.8301 57.3834 28.8678C57.3303 28.9063 57.2741 28.9398 57.2148 28.9676C57.1573 28.9945 57.0976 29.0165 57.0364 29.033L56.3623 29.2121L56.8813 27.514L57.9967 27.2108L57.8956 27.5553L57.1611 27.7516L57.0768 28.0306L57.3801 27.948ZM56.9925 28.3647L56.8711 28.7678L57.1373 28.6956C57.1712 28.6852 57.2042 28.6715 57.2352 28.6543C57.2671 28.6365 57.2966 28.6145 57.3226 28.5886C57.3467 28.562 57.3682 28.5334 57.3868 28.5025C57.4044 28.4719 57.4158 28.4379 57.4205 28.4027C57.426 28.3812 57.426 28.3586 57.4205 28.3373C57.4138 28.3209 57.4019 28.3077 57.3868 28.2993C57.3715 28.2895 57.3541 28.2836 57.3363 28.2821C57.3127 28.2788 57.2889 28.2788 57.2654 28.2821L56.9925 28.3647Z" fill="white"/>
<path d="M42.8898 12.522L42.7482 12.4393C45.3284 11.5225 48.0439 11.0669 50.7755 11.0924C50.7755 11.0924 45.8318 9.88323 41.4474 11.7124L40.6521 11.2612C42.3693 10.4519 44.1815 9.87292 46.0442 9.53875C47.4318 9.31039 48.8476 9.32787 50.2296 9.59043C49.7158 9.24721 49.1773 8.94435 48.6186 8.68443C51.3619 8.17115 53.748 8.33995 53.7143 10.4344C53.7143 10.4344 53.4345 12.3222 51.7765 12.6804C50.6442 12.925 48.7436 12.7425 47.0281 12.9939C46.2194 13.1111 44.7163 13.6967 42.8898 12.522ZM55.4092 8.92902C54.9847 9.5353 54.8871 10.6756 54.6747 11.4231C54.0444 13.6726 56.1879 12.2361 56.1978 9.8109C56.2147 9.30107 55.4229 8.92902 55.4229 8.92902H55.4092ZM53.6905 18.454C53.6801 18.359 53.6643 18.2647 53.6434 18.1715C53.6454 18.1566 53.6454 18.1416 53.6434 18.1267C53.6278 18.0418 53.6075 17.9591 53.5827 17.8787C53.4987 18.141 53.3698 18.386 53.2021 18.6021L53.1448 18.671H53.0605C52.3882 18.5648 51.7027 18.587 51.0385 18.7365C50.8085 18.7924 50.5911 18.893 50.3981 19.0327L49.7949 19.6838L49.8724 19.1773C49.8724 19.1257 49.8925 19.074 49.9027 19.0223L49.923 18.8811C49.9849 18.4905 49.9559 18.0905 49.8387 17.7134C49.7916 17.8683 49.7354 18.0201 49.6702 18.1681C49.6481 18.2233 49.6236 18.2774 49.5961 18.33C49.5522 18.4264 49.5051 18.5194 49.4546 18.6125L49.35 18.795L49.2018 19.0259C49.1579 19.0879 49.1175 19.1533 49.0737 19.2118C49.0298 19.2703 48.976 19.3359 48.9287 19.398C48.7113 19.6711 48.4749 19.928 48.2211 20.1661L48.1671 20.2178C48.0761 20.3004 47.9852 20.3832 47.8908 20.4623C47.6885 20.6345 47.4831 20.8068 47.2774 20.9481C48.5631 20.2821 49.9012 19.7278 51.2776 19.2911C52.1978 19.0948 53.0065 19.0707 53.5592 19.3119H53.5827C53.6219 19.2331 53.6514 19.1497 53.6705 19.0639C53.7156 18.8674 53.727 18.6646 53.7042 18.4643L53.6905 18.454ZM53.8558 12.5978C53.5056 13.0851 53.0491 13.4823 52.5227 13.758C51.9964 14.0336 51.4142 14.1801 50.8229 14.1858C49.0298 14.1169 47.4258 13.8414 45.205 14.7163C50.3106 14.3098 48.8647 18.1095 48.8647 18.1095C49.3019 17.6774 49.6744 17.1817 49.9701 16.6386C50.3317 15.9644 50.6283 15.256 50.8566 14.5234C50.9009 15.1246 50.8521 15.7292 50.7116 16.3148L52.9054 15.891C52.9054 15.891 53.0571 15.8635 53.3941 15.5052C53.2087 15.8772 53.0335 16.1528 53.0335 16.1528L52.9458 17.1656C53.6838 16.3527 54.5433 13.7793 54.5433 13.7793C53.2256 13.9309 54.0107 12.4255 53.8692 12.6081L53.8558 12.5978ZM41.1643 7.42361C40.5279 7.41644 39.892 7.45211 39.2603 7.53042C39.266 7.60604 39.2783 7.68098 39.2972 7.75432C39.3629 7.99572 39.4855 8.21693 39.6546 8.39852C40.1331 8.31238 40.6216 8.2435 41.0935 8.18838C41.1406 7.9395 41.1688 7.68728 41.1777 7.43395L41.1643 7.42361ZM42.2729 7.53731C42.1252 7.50468 41.9755 7.48165 41.8248 7.4684C41.7391 7.70041 41.6355 7.92504 41.5148 8.14014L42.1012 8.08504C42.1953 7.91939 42.2583 7.73706 42.2865 7.54765L42.2729 7.53731Z" fill="white"/>
<path d="M47.9679 19.4497C47.9788 19.4386 47.988 19.4256 47.9949 19.4117C43.0343 18.3472 42.8791 21.7543 43.3545 22.4499C43.3996 22.5351 43.4539 22.6149 43.5161 22.6878C44.2695 22.1718 45.0578 21.7112 45.8752 21.3097C46.0539 21.1893 47.9243 19.5115 47.9679 19.4497Z" fill="#E30613"/>
</svg>
